HIERARCHY
ROOT Hips
{
    OFFSET 12.590667724609375 94.30335998535156 -18.409942626953125
    CHANNELS 6 Xposition Yposition Zposition Zrotation Xrotation Yrotation
    JOINT RightUpLeg
    {
        OFFSET -12.590667724609375 0.0 0.0
        CHANNELS 3 Zrotation Xrotation Yrotation
        JOINT RightLeg
        {
            OFFSET 0.0 -48.27850341796875 0.0
            CHANNELS 3 Zrotation Xrotation Yrotation
            JOINT RightFoot
            {
                OFFSET 0.0 -46.02485656738281 0.0
                CHANNELS 3 Zrotation Xrotation Yrotation
                End Site
                {
                    OFFSET 0.0 0.0 18.409942626953125
                }
            }
        }
    }
    JOINT LeftUpLeg
    {
        OFFSET 12.590667724609375 0.0 0.0
        CHANNELS 3 Zrotation Xrotation Yrotation
        JOINT LeftLeg
        {
            OFFSET 0.0 -48.27850341796875 0.0
            CHANNELS 3 Zrotation Xrotation Yrotation
            JOINT LeftFoot
            {
                OFFSET 0.0 -46.02485656738281 0.0
                CHANNELS 3 Zrotation Xrotation Yrotation
                End Site
                {
                    OFFSET 0.0 0.0 18.409942626953125
                }
            }
        }
    }
    JOINT Spine
    {
        OFFSET 0.0 25.566783905029297 0.0
        CHANNELS 3 Zrotation Xrotation Yrotation
        JOINT Spine3
        {
            OFFSET 0.0 25.03233528137207 0.0
            CHANNELS 3 Zrotation Xrotation Yrotation
            JOINT Neck
            {
                OFFSET 0.0 11.12590217590332 0.0
                CHANNELS 3 Zrotation Xrotation Yrotation
                End Site
                {
                    OFFSET 0.0 4.450361251831055 0.0
                }
            }
            JOINT LeftArm
            {
                OFFSET 12.899383544921875 0.0 0.0
                CHANNELS 3 Zrotation Xrotation Yrotation
                JOINT LeftForeArm
                {
                    OFFSET 27.929668426513672 0.0 0.0
                    CHANNELS 3 Zrotation Xrotation Yrotation
                    JOINT LeftHand
                    {
                        OFFSET 18.92498016357422 0.0 0.0
                        CHANNELS 3 Zrotation Xrotation Yrotation
                        End Site
                        {
                            OFFSET 7.569991588592529 0.0 0.0
                        }
                    }
                }
            }
            JOINT RightArm
            {
                OFFSET -12.899383544921875 0.0 0.0
                CHANNELS 3 Zrotation Xrotation Yrotation
                JOINT RightForeArm
                {
                    OFFSET -27.929668426513672 0.0 0.0
                    CHANNELS 3 Zrotation Xrotation Yrotation
                    JOINT RightHand
                    {
                        OFFSET -18.92498016357422 0.0 0.0
                        CHANNELS 3 Zrotation Xrotation Yrotation
                        End Site
                        {
                            OFFSET -7.569991588592529 0.0 0.0
                        }
                    }
                }
            }
        }
    }
}
MOTION
Frames: 4
Frame Time: 0.03333333333333333
-0.00030047923792153597 94.20069122314453 -0.0007109480211511254 -7.183206369518186 -14.278588141268315 -15.25456104720978 5.363630134022359 26.054672458302043 -3.5567233338421542 -1.7396952781973076 5.707737991534321 -0.5472103296524143 -3.975693351829396e-16 -4.969616689786745e-17 3.4787316828507215e-16 2.1327480308499074 26.226339415775108 -2.1402174939229273 -1.0058064364577677 5.4112975721830985 -0.314913585626131 1.4908850069360232e-16 -6.21202086223343e-18 2.7332891793827095e-16 6.932961344116813 29.908605608548086 -4.8353705980094315 -3.2744998629517604e-07 1.0550109660000237e-06 -1.200919949301271 0.8373426892088612 -1.831319972701792 -177.41445440085508 108.65660423860295 -29.378014987101363 -176.9186731288489 -5.021245662298688e-06 7.464344063952434e-07 21.260314989628416 -1.5902773407317584e-15 -4.4139062980501586e-32 3.1805546814635168e-15 -113.31105708016318 -27.952764993560248 174.85624584623835 2.773722633424276e-06 6.196811808798429e-07 -21.982898020189886 1.4908850069360238e-15 -1.5902773407317588e-15 1.5902773407317588e-15
-0.0003084884083364159 94.20067596435547 -0.0007202874403446913 -7.33844818988097 -14.250555870488837 -15.190357346010513 5.885971580913797 26.02118714981864 -3.666549787462691 -2.235747566964129 5.875612359058342 -0.5359378230742526 1.9878466759146977e-16 -2.586273221513765e-34 -1.4908850069360232e-16 2.6042916447018847 26.280967304631755 -2.2356758823664102 -1.0301369017732043 5.1871764154998505 -0.3161707067388385 -3.478731682850722e-16 3.1774486710324e-15 3.3855513699172194e-15 7.032614474714557 29.644223392583314 -4.712407879681462 2.0753925055410457e-07 -7.897148140447928e-07 -1.2206044389660586 0.7483389248810322 -2.008062054588062 -177.01016273103167 108.63701248757599 -29.709901852230256 -176.93285214083298 -1.384944130798207e-06 4.028749546440401e-06 20.83771648425996 3.1805546814635168e-15 -3.1805546814635168e-15 -6.3611093629270335e-15 -112.62360302270646 -26.14919924546064 175.4360678625366 -1.71340592396692e-06 2.8028137341184768e-06 -21.498923344420554 -5.466578358765419e-15 0.0 0.0
-0.0003160604974254966 94.20068359375 -0.0007292996160686016 -7.3972425629080165 -14.065003128775325 -15.430108412784554 5.8095740861007075 25.73012067606737 -3.5827944066931448 -2.2151851348368536 6.133392352548969 -0.5535551783531462 -1.9878466759146965e-16 -3.1308585145656485e-15 3.87630101803366e-15 2.5432642845654274 26.080437240819766 -2.1808620699830037 -0.6346939699611013 4.953156125431449 -0.3300408761197283 2.4848083448933817e-17 -3.1774486710324002e-15 3.4010814220728036e-15 6.816535702494738 29.472547954534555 -4.565625352631799 -4.882231290985367e-07 4.9872995887299505e-08 -1.3899620334663974 0.9126455343158888 -2.335905878530908 -176.91350989056886 108.94415732311087 -29.327292748886276 -177.05194050852165 -2.249545410998079e-06 -7.915702585932993e-06 20.657232329629412 8.827812596100317e-32 3.1805546814635168e-15 -3.1805546814635168e-15 -112.24584192490322 -25.156912923684978 175.95496679985354 1.241290059165878e-06 1.6066155083295902e-06 -21.417098101550774 2.782985346280577e-15 0.0 0.0
-0.00029994407668709755 94.2006607055664 -0.0007248736219480634 -7.375030213712601 -14.054816554683397 -15.432960364164376 5.895320078861693 25.732947881657008 -3.6045804547441067 -2.2149809466815915 6.119001016665379 -0.5569647541088771 -1.987846675914698e-16 1.034509288605506e-33 -5.963540027744094e-16 2.6111504980541747 26.009194586705018 -2.188886206196528 -0.7022615801355764 4.784423438486797 -0.31569917680796306 -2.236327510404035e-16 3.1805546814635168e-15 -1.341796506242421e-15 6.50129104916069 28.988003070648702 -4.32333945967642 -2.0978812665251898e-07 -4.887083416789708e-07 -1.3817465728344784 1.1956112580092453 -2.15355830493252 -176.2586738457343 108.84144866484348 -26.093589742977443 -177.45706477865176 1.3845217320821814e-06 1.278641247359791e-06 20.82485174469043 -3.1805546814635176e-15 8.827812596100317e-32 -3.1805546814635176e-15 -111.68171395676015 -22.59878068050029 176.6135476390143 3.6372688275482798e-06 -3.6417109448029844e-06 -21.546574075798794 -6.013236194641961e-15 0.0 0.0
